<svg width="33" height="34" viewBox="0 0 33 34" fill="none" xmlns="http://www.w3.org/2000/svg">
<circle cx="16.4314" cy="16.6521" r="15.9314" stroke="white"/>
<path d="M16.4284 10.3486C15.1817 10.3486 13.963 10.7183 12.9264 11.411C11.8898 12.1036 11.0819 13.088 10.6048 14.2398C10.1277 15.3916 10.0029 16.659 10.2461 17.8818C10.4893 19.1045 11.0897 20.2277 11.9712 21.1092C12.8528 21.9908 13.9759 22.5911 15.1987 22.8344C16.4214 23.0776 17.6888 22.9527 18.8406 22.4757C19.9924 21.9986 20.9769 21.1906 21.6695 20.154C22.3622 19.1175 22.7318 17.8987 22.7318 16.6521C22.73 14.9808 22.0653 13.3786 20.8836 12.1969C19.7019 11.0152 18.0996 10.3505 16.4284 10.3486ZM19.298 18.8252C19.2421 18.896 19.171 18.9533 19.0899 18.9928C19.0088 19.0323 18.9199 19.053 18.8297 19.0534C18.694 19.0544 18.5622 19.0077 18.4575 18.9213L16.0561 17.1203C15.9854 17.0644 15.9282 16.9932 15.8887 16.9122C15.8493 16.8311 15.8285 16.7422 15.8281 16.6521V12.4498C15.8281 12.2906 15.8913 12.1379 16.0039 12.0253C16.1165 11.9127 16.2692 11.8494 16.4284 11.8494C16.5876 11.8494 16.7403 11.9127 16.8529 12.0253C16.9655 12.1379 17.0287 12.2906 17.0287 12.4498V16.3639L19.202 17.9848C19.2645 18.0329 19.3167 18.0931 19.3554 18.1618C19.3942 18.2305 19.4188 18.3063 19.4278 18.3847C19.4367 18.4631 19.4298 18.5425 19.4076 18.6181C19.3853 18.6938 19.348 18.7642 19.298 18.8252Z" fill="white"/>
<path d="M16.4268 7.64697C14.6458 7.64697 12.9048 8.1751 11.4239 9.16457C9.94307 10.154 8.78889 11.5604 8.10734 13.2058C7.42578 14.8513 7.24745 16.6618 7.59491 18.4086C7.94236 20.1554 8.79999 21.7599 10.0593 23.0193C11.3187 24.2786 12.9232 25.1363 14.67 25.4837C16.4168 25.8312 18.2274 25.6528 19.8728 24.9713C21.5182 24.2897 22.9246 23.1355 23.9141 21.6547C24.9035 20.1739 25.4316 18.4329 25.4316 16.6519C25.4287 14.2645 24.4791 11.9758 22.791 10.2876C21.1029 8.59954 18.8141 7.64988 16.4268 7.64697ZM16.4268 24.1959C14.9347 24.1959 13.4761 23.7535 12.2355 22.9245C10.9949 22.0956 10.0279 20.9174 9.45694 19.5389C8.88595 18.1604 8.73655 16.6435 9.02764 15.1801C9.31873 13.7167 10.0372 12.3724 11.0923 11.3174C12.1474 10.2623 13.4916 9.54382 14.955 9.25273C16.4184 8.96164 17.9353 9.11104 19.3138 9.68203C20.6923 10.253 21.8705 11.22 22.6994 12.4606C23.5284 13.7012 23.9708 15.1598 23.9708 16.6519C23.9689 18.6521 23.1735 20.5698 21.7591 21.9842C20.3447 23.3986 18.427 24.194 16.4268 24.1959Z" fill="white"/>
</svg>
