<svg width="33" height="33" viewBox="0 0 33 33" fill="none" xmlns="http://www.w3.org/2000/svg">
<circle cx="16.4314" cy="16.5276" r="15.9314" stroke="white"/>
<path d="M17.5576 18.5787C17.2207 18.8034 16.8294 18.9221 16.426 18.9221C16.0226 18.9221 15.6314 18.8034 15.2945 18.5787L9.7464 14.8784C9.71562 14.8579 9.68563 14.8365 9.65625 14.8145V20.8778C9.65625 21.573 10.2202 22.1247 10.9027 22.1247H21.9494C22.6443 22.1247 23.1958 21.5606 23.1958 20.8778V14.8145C23.1664 14.8365 23.1363 14.858 23.1055 14.8785L17.5576 18.5787Z" fill="white"/>
<path d="M10.1865 14.2188L15.7346 17.9192C15.9446 18.0592 16.1853 18.1293 16.426 18.1293C16.6667 18.1293 16.9075 18.0592 17.1175 17.9192L22.6656 14.2188C22.9976 13.9975 23.1958 13.6272 23.1958 13.2274C23.1958 12.5401 22.6369 11.981 21.9498 11.981H10.9022C10.2152 11.981 9.65625 12.5401 9.65625 13.2281C9.65625 13.6272 9.85448 13.9975 10.1865 14.2188Z" fill="white"/>
</svg>
