<svg width="26" height="26" viewBox="0 0 26 26" fill="none" xmlns="http://www.w3.org/2000/svg">
<path fill-rule="evenodd" clip-rule="evenodd" d="M13 0C15.4213 0.0276298 17.6086 0.622708 19.5622 1.78523C21.4924 2.92455 23.098 4.54001 24.2255 6.47712C25.381 8.44239 25.9725 10.643 26 13.079C25.9314 16.4121 24.8801 19.2589 22.8462 21.6193C20.8122 23.9798 18.2073 25.4401 15.5106 25.9999V16.6551H18.0601L18.6366 12.9827H14.7761V10.5775C14.7547 10.0788 14.9124 9.58901 15.2207 9.19652C15.5294 8.80296 16.0731 8.59611 16.8517 8.57597H19.1829V5.3591C19.1495 5.34834 18.8321 5.30578 18.2307 5.23143C17.5488 5.15164 16.8629 5.10902 16.1763 5.10376C14.6223 5.11093 13.3933 5.54929 12.4893 6.41884C11.5852 7.28814 11.1234 8.54584 11.1038 10.1919V12.9827H8.16598V16.6551H11.1038V25.9999C7.79273 25.4401 5.18774 23.9798 3.1538 21.6193C1.11986 19.2589 0.0686304 16.4121 0 13.079C0.0274584 10.6429 0.618939 8.44227 1.77444 6.47712C2.90199 4.54001 4.50764 2.92455 6.43785 1.78523C8.39129 0.622932 10.5787 0.0278536 13 0Z" fill="#48422D"/>
</svg>
