<svg width="26" height="26" viewBox="0 0 26 26" fill="none" xmlns="http://www.w3.org/2000/svg">
<path d="M15.4883 13C15.4883 14.3743 14.3743 15.4883 13 15.4883C11.6257 15.4883 10.5117 14.3743 10.5117 13C10.5117 11.6257 11.6257 10.5117 13 10.5117C14.3743 10.5117 15.4883 11.6257 15.4883 13Z" fill="white"/>
<path d="M18.8192 8.59737C18.6996 8.27324 18.5088 7.97986 18.2608 7.73904C18.02 7.49109 17.7268 7.30026 17.4025 7.18065C17.1395 7.07849 16.7443 6.95689 16.0165 6.92377C15.2292 6.88786 14.9932 6.88013 13 6.88013C11.0066 6.88013 10.7706 6.88766 9.98347 6.92357C9.25568 6.95689 8.86034 7.07849 8.5975 7.18065C8.27318 7.30026 7.9798 7.49109 7.73918 7.73904C7.49123 7.97986 7.3004 8.27304 7.18059 8.59737C7.07843 8.8604 6.95683 9.25574 6.92371 9.98354C6.8878 10.7706 6.88007 11.0067 6.88007 13.0001C6.88007 14.9932 6.8878 15.2293 6.92371 16.0166C6.95683 16.7444 7.07843 17.1395 7.18059 17.4026C7.3004 17.7269 7.49103 18.0201 7.73898 18.2609C7.9798 18.5088 8.27298 18.6997 8.59731 18.8193C8.86034 18.9216 9.25568 19.0432 9.98347 19.0764C10.7706 19.1123 11.0064 19.1198 12.9998 19.1198C14.9934 19.1198 15.2294 19.1123 16.0163 19.0764C16.7441 19.0432 17.1395 18.9216 17.4025 18.8193C18.0535 18.5681 18.5681 18.0536 18.8192 17.4026C18.9214 17.1395 19.043 16.7444 19.0763 16.0166C19.1122 15.2293 19.1197 14.9932 19.1197 13.0001C19.1197 11.0067 19.1122 10.7706 19.0763 9.98354C19.0432 9.25574 18.9216 8.8604 18.8192 8.59737ZM13 16.8331C10.8829 16.8331 9.16661 15.117 9.16661 12.9999C9.16661 10.8827 10.8829 9.16667 13 9.16667C15.1169 9.16667 16.8332 10.8827 16.8332 12.9999C16.8332 15.117 15.1169 16.8331 13 16.8331ZM16.9847 9.91093C16.49 9.91093 16.0889 9.50984 16.0889 9.01512C16.0889 8.5204 16.49 8.11931 16.9847 8.11931C17.4795 8.11931 17.8806 8.5204 17.8806 9.01512C17.8804 9.50984 17.4795 9.91093 16.9847 9.91093Z" fill="white"/>
<path d="M13 0C5.8214 0 0 5.8214 0 13C0 20.1786 5.8214 26 13 26C20.1786 26 26 20.1786 26 13C26 5.8214 20.1786 0 13 0ZM20.4198 16.0776C20.3837 16.8723 20.2574 17.4148 20.0729 17.8897C19.6851 18.8924 18.8924 19.6851 17.8897 20.0729C17.415 20.2574 16.8723 20.3835 16.0778 20.4198C15.2818 20.4561 15.0275 20.4648 13.0002 20.4648C10.9727 20.4648 10.7186 20.4561 9.92238 20.4198C9.12793 20.3835 8.58521 20.2574 8.11052 20.0729C7.61223 19.8854 7.16115 19.5916 6.78822 19.2118C6.40855 18.8391 6.11478 18.3878 5.92732 17.8897C5.74284 17.415 5.61649 16.8723 5.58038 16.0778C5.54369 15.2816 5.53516 15.0273 5.53516 13C5.53516 10.9727 5.54369 10.7184 5.58018 9.92238C5.61629 9.12773 5.74245 8.58521 5.92693 8.11032C6.11438 7.61223 6.40836 7.16095 6.78822 6.78822C7.16095 6.40836 7.61223 6.11458 8.11032 5.92712C8.58521 5.74265 9.12773 5.61649 9.92238 5.58018C10.7184 5.54388 10.9727 5.53516 13 5.53516C15.0273 5.53516 15.2816 5.54388 16.0776 5.58038C16.8723 5.61649 17.4148 5.74265 17.8897 5.92693C18.3878 6.11438 18.8391 6.40836 19.212 6.78822C19.5916 7.16115 19.8856 7.61223 20.0729 8.11032C20.2576 8.58521 20.3837 9.12773 20.42 9.92238C20.4563 10.7184 20.4648 10.9727 20.4648 13C20.4648 15.0273 20.4563 15.2816 20.4198 16.0776Z" fill="white"/>
</svg>
