<svg width="26" height="26" viewBox="0 0 26 26" fill="none" xmlns="http://www.w3.org/2000/svg">
<path d="M15.4883 13C15.4883 14.3743 14.3743 15.4883 13 15.4883C11.6257 15.4883 10.5117 14.3743 10.5117 13C10.5117 11.6257 11.6257 10.5117 13 10.5117C14.3743 10.5117 15.4883 11.6257 15.4883 13Z" fill="#48422D"/>
<path d="M18.82 8.59712C18.7004 8.27299 18.5096 7.97961 18.2616 7.7388C18.0208 7.49084 17.7276 7.30002 17.4033 7.1804C17.1403 7.07825 16.7451 6.95665 16.0173 6.92352C15.23 6.88762 14.994 6.87988 13.0008 6.87988C11.0074 6.87988 10.7714 6.88742 9.98427 6.92332C9.25647 6.95665 8.86113 7.07825 8.5983 7.1804C8.27397 7.30002 7.98059 7.49084 7.73997 7.7388C7.49202 7.97961 7.30119 8.2728 7.18138 8.59712C7.07922 8.86015 6.95763 9.25549 6.9245 9.98329C6.8886 10.7704 6.88086 11.0065 6.88086 12.9998C6.88086 14.993 6.8886 15.229 6.9245 16.0163C6.95763 16.7441 7.07922 17.1393 7.18138 17.4023C7.30119 17.7266 7.49182 18.0198 7.73978 18.2606C7.98059 18.5086 8.27377 18.6994 8.5981 18.819C8.86113 18.9214 9.25647 19.043 9.98427 19.0761C10.7714 19.112 11.0072 19.1196 13.0006 19.1196C14.9942 19.1196 15.2302 19.112 16.0171 19.0761C16.7449 19.043 17.1403 18.9214 17.4033 18.819C18.0543 18.5679 18.5689 18.0533 18.82 17.4023C18.9222 17.1393 19.0438 16.7441 19.0771 16.0163C19.113 15.229 19.1205 14.993 19.1205 12.9998C19.1205 11.0065 19.113 10.7704 19.0771 9.98329C19.044 9.25549 18.9224 8.86015 18.82 8.59712ZM13.0008 16.8328C10.8837 16.8328 9.1674 15.1168 9.1674 12.9996C9.1674 10.8825 10.8837 9.16643 13.0008 9.16643C15.1177 9.16643 16.834 10.8825 16.834 12.9996C16.834 15.1168 15.1177 16.8328 13.0008 16.8328ZM16.9855 9.91069C16.4908 9.91069 16.0897 9.5096 16.0897 9.01488C16.0897 8.52016 16.4908 8.11906 16.9855 8.11906C17.4803 8.11906 17.8813 8.52016 17.8813 9.01488C17.8811 9.5096 17.4803 9.91069 16.9855 9.91069Z" fill="#48422D"/>
<path d="M13 0C5.8214 0 0 5.8214 0 13C0 20.1786 5.8214 26 13 26C20.1786 26 26 20.1786 26 13C26 5.8214 20.1786 0 13 0ZM20.4198 16.0776C20.3837 16.8723 20.2574 17.4148 20.0729 17.8897C19.6851 18.8924 18.8924 19.6851 17.8897 20.0729C17.415 20.2574 16.8723 20.3835 16.0778 20.4198C15.2818 20.4561 15.0275 20.4648 13.0002 20.4648C10.9727 20.4648 10.7186 20.4561 9.92238 20.4198C9.12793 20.3835 8.58521 20.2574 8.11052 20.0729C7.61223 19.8854 7.16115 19.5916 6.78822 19.2118C6.40855 18.8391 6.11478 18.3878 5.92732 17.8897C5.74284 17.415 5.61649 16.8723 5.58038 16.0778C5.54369 15.2816 5.53516 15.0273 5.53516 13C5.53516 10.9727 5.54369 10.7184 5.58018 9.92238C5.61629 9.12773 5.74245 8.58521 5.92693 8.11032C6.11438 7.61223 6.40836 7.16095 6.78822 6.78822C7.16095 6.40836 7.61223 6.11458 8.11032 5.92712C8.58521 5.74265 9.12773 5.61649 9.92238 5.58018C10.7184 5.54388 10.9727 5.53516 13 5.53516C15.0273 5.53516 15.2816 5.54388 16.0776 5.58038C16.8723 5.61649 17.4148 5.74265 17.8897 5.92693C18.3878 6.11438 18.8391 6.40836 19.212 6.78822C19.5916 7.16115 19.8856 7.61223 20.0729 8.11032C20.2576 8.58521 20.3837 9.12773 20.42 9.92238C20.4563 10.7184 20.4648 10.9727 20.4648 13C20.4648 15.0273 20.4563 15.2816 20.4198 16.0776Z" fill="#48422D"/>
</svg>
