<svg width="33" height="33" viewBox="0 0 33 33" fill="none" xmlns="http://www.w3.org/2000/svg">
<circle cx="16.4314" cy="16.4314" r="15.9314" stroke="white"/>
<path d="M16.4144 7.85742C14.7553 7.85962 13.1648 8.51992 11.9916 9.69352C10.8185 10.8671 10.1585 12.4582 10.1562 14.118C10.1563 18.6125 15.9867 24.2418 16.2344 24.4792C16.2826 24.526 16.3472 24.5522 16.4144 24.5522C16.4815 24.5522 16.5461 24.526 16.5943 24.4792C16.842 24.2418 22.6725 18.6125 22.6725 14.118C22.6703 12.4582 22.0102 10.8671 20.8371 9.69352C19.6639 8.51992 18.0734 7.85962 16.4144 7.85742ZM16.4144 16.9874C15.8471 16.9874 15.2925 16.8191 14.8208 16.5038C14.3491 16.1885 13.9815 15.7404 13.7644 15.216C13.5473 14.6917 13.4905 14.1148 13.6012 13.5582C13.7118 13.0016 13.985 12.4903 14.3862 12.089C14.7873 11.6877 15.2984 11.4144 15.8548 11.3037C16.4112 11.193 16.9879 11.2498 17.512 11.467C18.0361 11.6841 18.4841 12.0519 18.7993 12.5238C19.1144 12.9957 19.2827 13.5504 19.2827 14.118C19.2822 14.8788 18.9799 15.6084 18.442 16.1464C17.9042 16.6845 17.1749 16.9869 16.4144 16.9874Z" fill="white"/>
</svg>
