<svg width="33" height="33" viewBox="0 0 33 33" fill="none" xmlns="http://www.w3.org/2000/svg">
<circle cx="16.4314" cy="16.5554" r="15.9314" stroke="white"/>
<path d="M23.2575 19.7692C23.2176 19.7375 20.3201 17.6481 19.5247 17.7981C19.1451 17.8653 18.928 18.1243 18.4923 18.6429C18.4222 18.7267 18.2538 18.9273 18.1229 19.0699C17.8476 18.9801 17.579 18.8708 17.3193 18.7427C15.9786 18.0898 14.8953 17.0061 14.2426 15.6648C14.1145 15.405 14.0052 15.1364 13.9155 14.8609C14.0586 14.7294 14.2591 14.561 14.3448 14.4889C14.8608 14.0555 15.1202 13.8384 15.1874 13.4576C15.3251 12.6687 13.238 9.75008 13.2161 9.72379C13.1214 9.58846 12.9978 9.47587 12.8543 9.39419C12.7107 9.3125 12.5508 9.26375 12.3862 9.25146C11.5402 9.25146 9.125 12.3858 9.125 12.9137C9.125 12.9444 9.16929 16.0627 13.0131 19.9742C16.9192 23.8151 20.0358 23.8594 20.0665 23.8594C20.5946 23.8594 23.7272 21.4433 23.7272 20.597C23.7151 20.4328 23.6667 20.2734 23.5854 20.1302C23.5042 19.9871 23.3922 19.8638 23.2575 19.7692Z" fill="white"/>
</svg>
