<svg xmlns="http://www.w3.org/2000/svg" xmlns:xlink="http://www.w3.org/1999/xlink" version="1.1" x="0px" y="0px" viewBox="0 0 100 125" style="enable-background:new 0 0 100 100;" xml:space="preserve">
  <g fill="white">
    <circle cx="40.6" cy="61" r="1.5"/>
    <circle cx="46.1" cy="61" r="1.5"/>
    <circle cx="51.6" cy="61" r="1.5"/>
    <path d="M73.7,19.6H55.4c-4.5,0-8.2,3.7-8.2,8.2V32c-0.3,0-0.6,0-1,0L46,32c-6,0-11.9,2.2-16.4,6.1c-4.5,3.9-7.4,9.2-8.3,15   c-1.9,1.6-3.2,4.3-3.2,7.3c0,4.7,3,8.6,6.9,8.9c0.4,0.5,1,0.9,1.7,0.9h1.4c1.2,0,2.1-1,2.1-2.1V52.8c0-1.2-1-2.1-2.1-2.1h-1.4   c-0.7,0-1.3,0.3-1.7,0.9c-0.6,0-1.3,0.2-1.8,0.4C25.4,41.4,35,33.6,46,33.6l0.2,0c0.4,0,0.8,0,1,0v6.7c0,1.1-0.5,5.5-1.2,11.7   c-0.1,0.5,0.2,1,0.7,1.3c0.2,0.1,0.4,0.2,0.6,0.2c0.3,0,0.6-0.1,0.8-0.3c4.3-3.5,6.7-4.7,7.3-4.7h12.4c0.6,1.3,0.8,2.2,1,3.4   c-0.5-0.2-1-0.3-1.6-0.3c-0.4-0.5-1-0.9-1.7-0.9h-1.4c-1.2,0-2.1,1-2.1,2.1V68c0,1.2,1,2.1,2.1,2.1h1.4c0,0,0.1,0,0.1,0   c-0.7,2-2.4,3.9-3.3,4.5c-3.3,2.4-8.4,3-11.4,3.1c-0.3-0.5-0.8-0.8-1.5-0.8h-2.8c-0.9,0-1.7,0.8-1.7,1.7c0,0.9,0.8,1.7,1.7,1.7h2.8   c0.7,0,1.2-0.4,1.5-0.9c3.2-0.1,8.6-0.8,12.3-3.4c1.2-0.9,3.8-3.7,4.2-6.7c3.7-0.5,6.6-4.2,6.6-8.8c0-3.2-1.4-6-3.5-7.6   c-0.3-1.7-0.4-2.9-1-4.4h4.1c4.5,0,8.2-3.7,8.2-8.2V27.8C81.9,23.3,78.2,19.6,73.7,19.6z M19.7,60.4c0-3.6,2.1-6.6,4.9-7.2v14.4   C21.8,67.1,19.7,64.1,19.7,60.4z M26.2,52.8c0-0.3,0.2-0.5,0.5-0.5h1.4c0.3,0,0.5,0.2,0.5,0.5V68c0,0.3-0.2,0.5-0.5,0.5h-1.4   c-0.3,0-0.5-0.2-0.5-0.5V52.8z M64.1,68.6c-0.3,0-0.5-0.2-0.5-0.5V52.8c0-0.3,0.2-0.5,0.5-0.5h1.4c0.3,0,0.5,0.2,0.5,0.5V68   c0,0.3-0.2,0.5-0.5,0.5H64.1z M72.5,60.4c0,3.6-2.1,6.6-4.9,7.2V53.3C70.4,53.8,72.5,56.8,72.5,60.4z M80.3,40.3   c0,3.6-3,6.6-6.6,6.6H55.4c-1.3,0-3.9,1.5-7.7,4.6c0.4-3.3,1.2-9.6,1.2-11.2V27.8c0-3.6,3-6.6,6.6-6.6h18.3c3.6,0,6.6,3,6.6,6.6   V40.3z"/><path d="M73.7,28.5H55c-0.4,0-0.8,0.4-0.8,0.8c0,0.4,0.4,0.8,0.8,0.8h18.8c0.4,0,0.8-0.4,0.8-0.8C74.6,28.9,74.2,28.5,73.7,28.5z"/><path d="M73.7,33.7H55c-0.4,0-0.8,0.4-0.8,0.8s0.4,0.8,0.8,0.8h18.8c0.4,0,0.8-0.4,0.8-0.8S74.2,33.7,73.7,33.7z"/><path d="M73.7,38.8l-18.8,0c-0.4,0-0.8,0.4-0.8,0.8c0,0.4,0.4,0.8,0.8,0.8l18.8,0c0.4,0,0.8-0.4,0.8-0.8S74.2,38.8,73.7,38.8z"/>
  </g>
</svg>
